<svg xmlns="http://www.w3.org/2000/svg" width="300" height="300" version="1" viewBox="0 0 225 225"><path d="M97.5 5.6c-11.6 1.7-27.7 7.2-38 12.9-20.6 11.5-38.6 32-47 53.5-6.1 15.5-6.9 20.2-6.9 40 0 19.3.1 20.3 5.6 36.5 4.1 12.5 15.1 29.9 24.9 39.5 13.8 13.5 32.5 23.8 51.9 28.6 8.8 2.3 29 3.5 38 2.3 41.3-5.1 75.9-33.4 89.1-72.9 4.4-13.4 5.6-22.9 4.7-38.9-1.3-24.2-8.4-43.4-22.7-61.3-15.2-19.1-34.1-31.3-58.6-38-6.9-1.9-33.5-3.3-41-2.2zM148 43.9c24.3 10.4 24.8 11 18.3 25.7l-3.8 8.4h-4.7c-2.7 0-4.8-.2-4.8-.4 0-.3.4-1.6 1-3 .8-2.1.5-2.8-1.4-4.3-3.4-2.7-4.8-6-4.8-11.2v-4.7l-5.2-2.1-5.1-2.1-2.4 2.5c-3.3 3.4-8.7 5.6-12.5 4.9l-3.1-.6-4.4 10.5-4.4 10.5h-4.8c-2.7 0-4.9-.3-4.9-.6 0-.9 12.7-32 14.8-36.4 2.1-4.3 5.6-6.2 10.2-5.6 1.9.3 11.8 4.1 22 8.5zm-37.6-4c.3.5-2.9 9.2-7.2 19.5C96 76.9 95.4 78 93 77.8c-1.4-.2-2.4-.8-2.3-1.3.8-4.9 8.8-33.3 9.6-34.4 2.2-2.6 9-4.1 10.1-2.2zM93 43.5c0 .3-2 7.9-4.5 17.1-2.5 9.1-4.5 16.7-4.5 17 0 .5-3.5.5-4.1-.1-.8-.8 2-24.8 3.3-27.9.6-1.5 2.5-3.7 4.2-4.7 3-1.8 5.6-2.5 5.6-1.4zm48.3 23.9c3.6 1.4 8.7 6.9 8.7 9.2 0 1.1-2.7 1.4-15 1.4-10.2 0-15-.3-15-1.1 0-2.5 3.2-7.6 5.8-9.1 3.3-2.1 11-2.3 15.5-.4zm-64.5 4.3c-.3 4.8-.3 4.8-4 5.1-2.5.2-3.8.8-3.8 1.8 0 1.2 6.4 1.4 44.5 1.4 48.2 0 48.5 0 53.5 5.5 2.1 2.3 2.5 3.6 2.5 9.3v6.7l-13.5.5c-10.2.4-14.3.9-16.7 2.2-11.1 6.1-10.8 22.5.6 28.5 4 2.1 5.7 2.3 17.3 2.3H170v5.5c0 6.3-1.7 10.3-5.6 13.4-2.6 2.1-3.5 2.1-51.8 2.1-46.2 0-49.3-.1-51.9-1.9-5.6-3.7-5.7-4.3-5.7-42.1 0-34.4 0-34.7 2.3-38.1 3-4.5 8-6.9 14.5-6.9h5.3l-.3 4.7zm96.2 36.2c.5 1.1 1 5.9 1 10.6 0 12.9.5 12.5-15.6 12.5-9.8 0-14.3-.4-16.3-1.4-7.8-4.1-8.8-15.3-2-21 3-2.5 3.5-2.6 17.4-2.6 13.2 0 14.5.2 15.5 1.9z"/><path d="M116.4 108.2c.2.7-2.1 3.5-5 6.2l-5.5 5-3.7-3.6-3.7-3.7-9 8.6c-4.9 4.7-7.2 7.2-5 5.5 2.2-1.7 6-5.1 8.5-7.6 2.4-2.5 4.8-4.6 5.4-4.6.5 0 2.3 1.6 4 3.5l3.1 3.6 5.2-5.1c2.9-2.9 6-5.3 7-5.4 2.6-.4 3-3.6.4-3.6-1.2 0-1.9.5-1.7 1.2zM149.2 115.2c-2.6 2.6-.7 7.8 2.8 7.8 1.9 0 5-3 5-4.8 0-3.2-5.4-5.4-7.8-3z"/></svg>